<?xml version="1.0" encoding="UTF-8" standalone="no" ?>
<!DOCTYPE svg PUBLIC "-//W3C//DTD SVG 1.1//EN" "http://www.w3.org/Graphics/SVG/1.1/DTD/svg11.dtd">
<svg xmlns="http://www.w3.org/2000/svg" xmlns:xlink="http://www.w3.org/1999/xlink" version="1.1" width="500" height="500" viewBox="0 0 500 500" xml:space="preserve">
<desc>Created with Fabric.js 3.6.3</desc>
<defs>
</defs>
<g transform="matrix(4.971721770051487 0 0 4.971721770051487 250.36637935393355 251.03034369148997)"  >
<g style=""   >
		<g transform="matrix(1 0 0 1 -0.02248853906350945 4.187259904348608)"  >
<path style="stroke: none; stroke-width: 1; stroke-dasharray: none; stroke-linecap: butt; stroke-dashoffset: 0; stroke-linejoin: miter; stroke-miterlimit: 4; fill: rgb(249,15,48); fill-rule: nonzero; opacity: 1;"  transform=" translate(-48.97751146093649, -54.087259904348606)" d="M 89 11.5 c -6.5 -4.4 -15.5 -3.8 -22.7 -0.4 c -7.2 3.4 -12.1 8.2 -16.5 14.8 C 40.9 14.6 33.2 8.5 22.4 9.5 S 2 19.4 0.3 30.1 c -1.5 9.4 2.5 18.8 7.4 27 c 10.6 17.5 25.4 32.3 42.9 42.7 c 11.2 -8 19.5 -15.5 28.7 -25.7 c 9.1 -10.3 16.3 -22.7 18.3 -36.3 C 98.9 28.1 97 17 89 11.5 z" stroke-linecap="round" />
</g>
		<g transform="matrix(1 0 0 1 -6.287892070122524 -43.65)"  >
<path style="stroke: none; stroke-width: 1; stroke-dasharray: none; stroke-linecap: butt; stroke-dashoffset: 0; stroke-linejoin: miter; stroke-miterlimit: 4; fill: rgb(46,133,85); fill-rule: nonzero; opacity: 1;"  transform=" translate(-42.712107929877476, -6.25)" d="M 38 3.9 c 0 0 0 0.1 0 0.1 c 0 0 0 0 0 0 c 0 0.1 0.1 0.2 0 0 c 0 0 0 0 0 0 C 38.1 3.9 38.1 3.9 38 3.9 C 38 3.8 38 3.8 38 3.9 c 1.1 4.6 5 8.5 9.9 8.6 c 0.3 -4.9 -2.2 -9.1 -6.8 -11.4 c -1 -0.5 -2.1 -0.9 -3.6 -1.1 C 37.5 1.8 37.7 2.6 38 3.9 C 38 3.8 38 3.8 38 3.9 z" stroke-linecap="round" />
</g>
		<g transform="matrix(1 0 0 1 6.338464906495918 -39.25)"  >
<path style="stroke: none; stroke-width: 1; stroke-dasharray: none; stroke-linecap: butt; stroke-dashoffset: 0; stroke-linejoin: miter; stroke-miterlimit: 4; fill: rgb(46,133,85); fill-rule: nonzero; opacity: 1;"  transform=" translate(-55.338464906495915, -10.650000000000002)" d="M 60.1 8.3 c 0.3 -1.1 0.4 -2.2 0.4 -3.7 c -1.7 0.3 -2.4 0.6 -3.5 1.1 c 0 0 -0.1 0.1 -0.2 0.1 c -0.1 0.1 -0.1 0 0 0 c 0 0 0.1 0 0.2 -0.1 c -4.3 1.8 -7.5 6.2 -6.7 11 C 55.1 16.1 58.7 13 60.1 8.3 z" stroke-linecap="round" />
</g>
		<g transform="matrix(1 0 0 1 -14.549999999999997 13.500000000000007)"  >
<path style="stroke: none; stroke-width: 1; stroke-dasharray: none; stroke-linecap: butt; stroke-dashoffset: 0; stroke-linejoin: miter; stroke-miterlimit: 4; fill: rgb(255,255,255); fill-rule: nonzero; opacity: 1;"  transform=" translate(-34.45, -63.400000000000006)" d="M 35.5 61.3 c 1.1 -2.7 2.9 -3.7 3.6 -3.9 c 0.2 -0.1 0.3 -0.2 0.3 -0.5 c 0 -2.6 -1.1 -19.9 -1.1 -19.9 h -0.2 l -0.9 16 c 0 0 0 0.3 -0.3 0.3 c -0.2 0 -0.2 -0.3 -0.2 -0.3 l -0.8 -16 h -0.1 h -0.1 l -0.9 16 c 0 0 0 0.3 -0.2 0.3 S 34.4 53 34.4 53 l -0.8 -16 h -0.1 h -0.1 l -1 16 c 0 0 0 0.3 -0.3 0.3 c -0.2 0 -0.3 -0.3 -0.3 -0.3 l -0.7 -16 H 31 h -0.1 c 0 0 -1.3 17.3 -1.4 19.9 c 0 0.2 0.1 0.4 0.3 0.5 c 0.7 0.2 2.5 1.2 3.6 4 c 0.7 1.7 0.1 14.1 -0.7 25.5 c 1.1 1 2.3 1.9 3.4 2.9 C 35.4 77.7 34.7 63.2 35.5 61.3 z" stroke-linecap="round" />
</g>
		<g transform="matrix(1 0 0 1 2 18.20000000000001)"  >
<path style="stroke: none; stroke-width: 1; stroke-dasharray: none; stroke-linecap: butt; stroke-dashoffset: 0; stroke-linejoin: miter; stroke-miterlimit: 4; fill: rgb(255,255,255); fill-rule: nonzero; opacity: 1;"  transform=" translate(-51, -68.10000000000001)" d="M 51.8 63.5 c 1 -2.6 2.7 -3.4 3.4 -3.6 c 0.2 -0.1 0.3 -0.2 0.3 -0.4 c 0.2 0 0.2 -0.2 0.2 -0.4 c 2.2 -2.2 3.6 -6 3.6 -10.3 c 0 -6.9 -3.7 -12.4 -8.3 -12.4 c -4.6 0 -8.3 5.6 -8.3 12.4 c 0 4.2 1.4 8 3.6 10.2 c 0 0.2 0 0.4 0 0.5 c 0 0.2 0.1 0.4 0.3 0.4 c 0.7 0.2 2.4 1 3.4 3.6 c 1 2.5 -0.8 25.9 -1.6 34.9 c 0.7 0.5 1.5 0.9 2.2 1.4 c 0.9 -0.7 1.9 -1.3 2.8 -2 C 52.6 88.4 50.8 65.9 51.8 63.5 z" stroke-linecap="round" />
</g>
		<g transform="matrix(1 0 0 1 17.696057452602645 12.518670607814588)"  >
<path style="stroke: none; stroke-width: 1; stroke-dasharray: none; stroke-linecap: butt; stroke-dashoffset: 0; stroke-linejoin: miter; stroke-miterlimit: 4; fill: rgb(255,255,255); fill-rule: nonzero; opacity: 1;"  transform=" translate(-66.69605745260264, -62.41867060781459)" d="M 70 39 c 0.4 -2.6 -1.7 -3 -3.6 0.3 c -3.1 5.5 -4.6 22.5 -0.8 31.3 c 0.1 0.2 0.1 0.3 0.1 0.5 c 0.4 2.3 0.3 9.5 -0.1 16.8 c 1.3 -1.1 2.5 -2.3 3.8 -3.5 c -0.1 -4.3 -0.1 -8.8 -0.1 -13.3 C 70.5 57 69.8 41.5 70 39 z" stroke-linecap="round" />
</g>
</g>
</g>
</svg>